# xmcd
#
# Track frame offsets:
#	150
#	11386
#	23070
#	32029
#	40461
#	50419
#	62005
#	71744
#	82052
#	90374
#	100948
#	110691
#	121082
#	131565
#	141018
#	152065
#
# Disc length: 2162 seconds
#
# Revision: 1
# Processed by: cddbd v1.5.2PL0 Copyright (c) Steve Scherf et al.
# Submitted via: audiograbber 1.83.01
#
DISCID=d0087010
DTITLE=Various Artist - All your Juke Box Favourites
DYEAR=2002
DGENRE=Oldies
TTITLE0=Lewis, Jerry Lee - What'd I say
TTITLE1=Fats Domino - Blueberry hill
TTITLE2=Holly, Buddy and the Picks - Reminiscing
TTITLE3=Eddy, Duane - Because they're young
TTITLE4=Little Richard - Keep a knockin'
TTITLE5=Shannon, Del - Runaway
TTITLE6=Perkins, Carl - Matchbox
TTITLE7=Coasters, The - Charlie Brown
TTITLE8=Johnny and the Hurricanes - Rockin' goose
TTITLE9=Lee, Curtis - Pretty little angel eyes
TTITLE10=Diamonds, The - Little darlin'
TTITLE11=Nelson, Rick - Hello Mary Lou
TTITLE12=Channel, Bruce - Hey baby
TTITLE13=Jones, Jimmy - Handy man
TTITLE14=Olympics, The - Western movies
TTITLE15=Jackson, Wanda - Let's have a party
EXTD=
EXTT0=
EXTT1=
EXTT2=
EXTT3=
EXTT4=
EXTT5=
EXTT6=
EXTT7=
EXTT8=
EXTT9=
EXTT10=
EXTT11=
EXTT12=
EXTT13=
EXTT14=
EXTT15=
PLAYORDER=
